<svg width="32" height="32" viewBox="0 0 32 32" fill="none" xmlns="http://www.w3.org/2000/svg">
<g clip-path="url(#clip0_268_846)">
<circle cx="16" cy="16" r="16" fill="white"/>
<path d="M26.6638 9.49968C27.0994 10.1516 27.47 10.8403 27.7724 11.5557C28.2244 12.6247 27.9716 13.6307 27.292 14.4016C26.5974 15.1895 25.4539 15.7233 24.1902 15.7233H21.585C18.3477 15.7233 15.7233 18.3477 15.7233 21.585V24.1902C15.7233 25.4539 15.1895 26.5974 14.4016 27.292C13.6307 27.9716 12.6247 28.2244 11.5557 27.7724C10.8403 27.47 10.1516 27.0994 9.49968 26.6638C7.46467 25.3041 5.87857 23.3714 4.94197 21.1102C4.00536 18.8491 3.7603 16.3609 4.23778 13.9605C4.71526 11.56 5.89383 9.35509 7.62445 7.62445C9.35509 5.89383 11.56 4.71526 13.9605 4.23778C16.3609 3.7603 18.8491 4.00536 21.1102 4.94197C23.3714 5.87857 25.3041 7.46467 26.6638 9.49968Z" stroke="#8BC34A" stroke-width="2"/>
<path d="M25.1248 7.62445C26.2634 8.76306 27.1572 10.1007 27.7723 11.5556C28.2243 12.6247 27.9716 13.6306 27.292 14.4016C26.5973 15.1895 25.4538 15.7233 24.1902 15.7233H8.55904C7.29541 15.7233 6.15189 15.1895 5.45722 14.4016C4.77763 13.6306 4.52484 12.6247 4.97684 11.5556C5.59199 10.1007 6.48578 8.76306 7.6244 7.62445C9.94509 5.30375 13.0926 4 16.3746 4C19.6566 4 22.8041 5.30375 25.1248 7.62445Z" stroke="#8BC34A" stroke-width="2"/>
<path d="M7.62457 7.6242C8.77368 6.47511 10.1378 5.5636 11.6392 4.94172C12.6889 4.50692 13.6749 4.75794 14.4298 5.42508C15.2015 6.10693 15.7235 7.22631 15.7235 8.4637V11.164C15.7235 13.6819 13.6823 15.7231 11.1644 15.7231H8.46405C7.22667 15.7231 6.1073 15.2011 5.42545 14.4295C4.7583 13.6745 4.50728 12.6885 4.94209 11.6388C5.56397 10.1374 6.47548 8.77329 7.62457 7.6242Z" stroke="#8BC34A" stroke-width="2"/>
</g>
<defs>
<clipPath id="clip0_268_846">
<rect width="32" height="32" fill="white"/>
</clipPath>
</defs>
</svg>
