<svg width="64" height="64" viewBox="0 0 64 64" fill="none" xmlns="http://www.w3.org/2000/svg">
<g clip-path="url(#clip0_268_846)">
<circle cx="32" cy="32" r="32" fill="white"/>
<path d="M53.3276 18.9994C54.1988 20.3033 54.9399 21.6805 55.5449 23.1114C56.4489 25.2495 55.9433 27.2614 54.5841 28.8031C53.1947 30.3791 50.9077 31.4467 48.3804 31.4467H43.17C36.6955 31.4467 31.4467 36.6955 31.4467 43.17V48.3804C31.4467 50.9077 30.3791 53.1947 28.8031 54.5841C27.2614 55.9433 25.2495 56.4489 23.1114 55.5449C21.6805 54.9399 20.3033 54.1988 18.9994 53.3276C14.9293 50.6081 11.7571 46.7428 9.88394 42.2204C8.01072 37.6981 7.52061 32.7218 8.47556 27.9209C9.43052 23.1201 11.7877 18.7102 15.2489 15.2489C18.7102 11.7877 23.1201 9.43052 27.9209 8.47556C32.7218 7.52061 37.6981 8.01072 42.2204 9.88394C46.7428 11.7571 50.6081 14.9293 53.3276 18.9994Z" stroke="#8BC34A" stroke-width="4"/>
<path d="M50.2496 15.2489C52.5268 17.5261 54.3144 20.2014 55.5447 23.1112C56.4487 25.2494 55.9431 27.2613 54.584 28.8031C53.1946 30.3791 50.9075 31.4467 48.3803 31.4467H17.1181C14.5908 31.4467 12.3038 30.3791 10.9144 28.8031C9.55526 27.2613 9.04968 25.2494 9.95368 23.1112C11.184 20.2014 12.9716 17.5261 15.2488 15.2489C19.8902 10.6075 26.1853 8 32.7492 8C39.3132 8 45.6082 10.6075 50.2496 15.2489Z" stroke="#8BC34A" stroke-width="4"/>
<path d="M15.2491 15.2484C17.5474 12.9502 20.2757 11.1272 23.2784 9.88344C25.3778 9.01384 27.3497 9.51587 28.8597 10.8502C30.4029 12.2139 31.4469 14.4526 31.4469 16.9274V22.328C31.4469 27.3639 27.3646 31.4462 22.3287 31.4462H16.9281C14.4533 31.4462 12.2146 30.4022 10.8509 28.859C9.5166 27.349 9.01457 25.3771 9.88417 23.2776C11.1279 20.2749 12.951 17.5466 15.2491 15.2484Z" stroke="#8BC34A" stroke-width="4"/>
</g>
<defs>
<clipPath id="clip0_268_846">
<rect width="64" height="64" fill="white"/>
</clipPath>
</defs>
</svg>
